<svg width="13" height="10" viewBox="0 0 13 10" fill="none" xmlns="http://www.w3.org/2000/svg">
<path d="M11.4072 4.26639C10.8922 3.74385 10.2114 3.45069 9.48862 3.44094L9.24424 3.43769L9.18988 3.1945C9.04508 2.54973 8.68484 1.9667 8.17547 1.55135C7.65142 1.12626 7.02063 0.905777 6.35058 0.914301C5.67297 0.924461 5.04299 1.16643 4.52724 1.61468C4.02579 2.05196 3.68381 2.65531 3.56399 3.31304L3.50844 3.61715L3.20851 3.56801C3.03634 3.54039 2.88042 3.52781 2.73084 3.52984C1.99293 3.54039 1.30187 3.84449 0.784542 4.38693C0.2692 4.92979 -0.00889788 5.64477 0.000217158 6.40078C0.0105255 7.15638 0.307666 7.86367 0.837684 8.39353C1.36849 8.92054 2.06712 9.20598 2.80542 9.19582L9.48935 9.10407C10.2273 9.09352 10.9183 8.78942 11.4357 8.24698C11.9506 7.70373 12.2291 6.98831 12.22 6.23271C12.2097 5.49094 11.9213 4.79342 11.4072 4.26639Z" fill="white"/>
</svg>
