<svg width="48" height="45" viewBox="0 0 48 45" fill="none" xmlns="http://www.w3.org/2000/svg">
<path d="M19.8283 24.724C21.3121 20.475 25.0739 17.4111 29.4816 16.8974C28.0415 12.7035 24.14 9.70361 19.552 9.70361C13.739 9.70361 9.02148 14.5243 9.02148 20.475C9.02148 23.3126 10.095 25.8926 11.8494 27.8191C13.8671 25.8986 16.5727 24.718 19.5462 24.718C19.6392 24.7181 19.7293 24.724 19.8283 24.724Z" fill="white"/>
<path d="M21.0831 0.46875H18.0166V6.51022H21.0831V0.46875Z" fill="white"/>
<path d="M10.9841 9.4907L6.81056 5.21939L4.6416 7.43775L8.81519 11.7105L10.9841 9.4907Z" fill="white"/>
<path d="M5.90311 18.9073H0V22.0458H5.90311V18.9073Z" fill="white"/>
<path d="M4.6416 33.5124L6.80767 35.7351L8.44419 34.0587C8.7017 32.7144 9.1861 31.4533 9.86108 30.3174L8.81221 29.2439L4.6416 33.5124Z" fill="white"/>
<path d="M34.4587 7.43781L32.2883 5.21802L28.1162 9.49076L30.2837 11.7105L34.4587 7.43781Z" fill="white"/>
<path d="M39.3428 27.1761C38.4831 23.0953 34.9409 20.0373 30.6976 20.0373C26.4091 20.0373 22.8364 23.1578 22.0248 27.3026C21.5447 27.2177 21.053 27.1641 20.5497 27.1641C15.8248 27.1641 11.9961 31.0826 11.9961 35.9167C11.9961 40.7523 15.8248 44.6707 20.5497 44.6707C24.5864 44.6707 35.1431 44.6707 39.1144 44.6707C43.8392 44.6707 47.668 40.7523 47.668 35.9167C47.668 31.16 43.9615 27.2996 39.3428 27.1761Z" fill="white"/>
</svg>
