<svg width="29" height="28" viewBox="0 0 29 28" fill="none" xmlns="http://www.w3.org/2000/svg">
<g opacity="0.5" clip-path="url(#clip0_99_1402)">
<path d="M20.0366 3.50002H24.7033C25.0127 3.50002 25.3094 3.62294 25.5282 3.84173C25.747 4.06052 25.8699 4.35727 25.8699 4.66669V23.3334C25.8699 23.6428 25.747 23.9395 25.5282 24.1583C25.3094 24.3771 25.0127 24.5 24.7033 24.5H3.70326C3.39384 24.5 3.09709 24.3771 2.8783 24.1583C2.65951 23.9395 2.53659 23.6428 2.53659 23.3334V4.66669C2.53659 4.35727 2.65951 4.06052 2.8783 3.84173C3.09709 3.62294 3.39384 3.50002 3.70326 3.50002H8.36992V1.16669H10.7033V3.50002H17.7033V1.16669H20.0366V3.50002ZM17.7033 5.83335H10.7033V8.16669H8.36992V5.83335H4.86992V10.5H23.5366V5.83335H20.0366V8.16669H17.7033V5.83335ZM23.5366 12.8334H4.86992V22.1667H23.5366V12.8334Z" fill="#3E92D1"/>
</g>
<defs>
<clipPath id="clip0_99_1402">
<rect width="28" height="28" fill="white" transform="translate(0.203247)"/>
</clipPath>
</defs>
</svg>
