<svg width="29" height="28" viewBox="0 0 29 28" fill="none" xmlns="http://www.w3.org/2000/svg">
<path d="M20.7779 3.50002H25.4445C25.7539 3.50002 26.0507 3.62294 26.2695 3.84173C26.4883 4.06052 26.6112 4.35727 26.6112 4.66669V23.3334C26.6112 23.6428 26.4883 23.9395 26.2695 24.1583C26.0507 24.3771 25.7539 24.5 25.4445 24.5H4.44452C4.1351 24.5 3.83836 24.3771 3.61956 24.1583C3.40077 23.9395 3.27785 23.6428 3.27785 23.3334V4.66669C3.27785 4.35727 3.40077 4.06052 3.61956 3.84173C3.83836 3.62294 4.1351 3.50002 4.44452 3.50002H9.11119V1.16669H11.4445V3.50002H18.4445V1.16669H20.7779V3.50002ZM18.4445 5.83335H11.4445V8.16669H9.11119V5.83335H5.61119V10.5H24.2779V5.83335H20.7779V8.16669H18.4445V5.83335ZM24.2779 12.8334H5.61119V22.1667H24.2779V12.8334Z" fill="#3E92D1"/>
</svg>
