<svg width="20" height="25" viewBox="0 0 20 25" fill="none" xmlns="http://www.w3.org/2000/svg">
<path fill-rule="evenodd" clip-rule="evenodd" d="M10.7991 24.1134L10.0957 24.75L9.3923 24.1134C3.47724 18.7599 0.470703 14.0854 0.470703 9.97645C0.470703 4.15759 4.85227 0 10.0957 0C15.3391 0 19.7207 4.15759 19.7207 9.97645C19.7207 14.0854 16.7142 18.7599 10.7991 24.1134ZM2.60919 9.97651C2.60919 13.1349 5.07599 17.1081 10.0953 21.7968C15.1146 17.1081 17.5814 13.1349 17.5814 9.97651C17.5814 5.42791 14.1976 2.21704 10.0953 2.21704C5.99304 2.21704 2.60919 5.42791 2.60919 9.97651ZM15.4434 9.97656C15.4434 6.91553 13.0494 4.43408 10.0962 4.43408C7.14302 4.43408 4.74899 6.91553 4.74899 9.97656C4.74899 13.0376 7.14302 15.519 10.0962 15.519C13.0494 15.519 15.4434 13.0376 15.4434 9.97656Z" fill="#3E92D1"/>
</svg>
