<svg width="29" height="28" viewBox="0 0 29 28" fill="none" xmlns="http://www.w3.org/2000/svg">
<path d="M24.0191 25.6667H21.6858V23.3334C21.6858 22.4051 21.317 21.5149 20.6607 20.8585C20.0043 20.2021 19.114 19.8334 18.1858 19.8334H11.1858C10.2575 19.8334 9.36729 20.2021 8.71091 20.8585C8.05454 21.5149 7.68579 22.4051 7.68579 23.3334V25.6667H5.35246V23.3334C5.35246 21.7863 5.96704 20.3025 7.061 19.2086C8.15496 18.1146 9.63869 17.5 11.1858 17.5H18.1858C19.7329 17.5 21.2166 18.1146 22.3106 19.2086C23.4045 20.3025 24.0191 21.7863 24.0191 23.3334V25.6667ZM14.6858 15.1667C13.7665 15.1667 12.8563 14.9856 12.007 14.6338C11.1577 14.2821 10.3861 13.7664 9.73604 13.1164C9.08603 12.4664 8.57041 11.6948 8.21863 10.8455C7.86685 9.99619 7.68579 9.08594 7.68579 8.16669C7.68579 7.24743 7.86685 6.33718 8.21863 5.4879C8.57041 4.63862 9.08603 3.86695 9.73604 3.21694C10.3861 2.56693 11.1577 2.05131 12.007 1.69953C12.8563 1.34775 13.7665 1.16669 14.6858 1.16669C16.5423 1.16669 18.3228 1.90418 19.6355 3.21694C20.9483 4.52969 21.6858 6.31017 21.6858 8.16669C21.6858 10.0232 20.9483 11.8037 19.6355 13.1164C18.3228 14.4292 16.5423 15.1667 14.6858 15.1667ZM14.6858 12.8334C15.9235 12.8334 17.1104 12.3417 17.9856 11.4665C18.8608 10.5913 19.3525 9.40436 19.3525 8.16669C19.3525 6.92901 18.8608 5.74203 17.9856 4.86686C17.1104 3.99169 15.9235 3.50002 14.6858 3.50002C13.4481 3.50002 12.2611 3.99169 11.386 4.86686C10.5108 5.74203 10.0191 6.92901 10.0191 8.16669C10.0191 9.40436 10.5108 10.5913 11.386 11.4665C12.2611 12.3417 13.4481 12.8334 14.6858 12.8334Z" fill="#3E92D1"/>
</svg>
