<svg width="40" height="40" viewBox="0 0 40 40" fill="none" xmlns="http://www.w3.org/2000/svg">
<path fill-rule="evenodd" clip-rule="evenodd" d="M16.6667 30C9.30291 30 3.33337 24.0304 3.33337 16.6666C3.33337 9.30285 9.30291 3.33331 16.6667 3.33331C24.0305 3.33331 30 9.30285 30 16.6666C30 19.7478 28.9549 22.5849 27.1998 24.8427L36.1786 33.8215L33.8215 36.1785L24.8428 27.1997C22.585 28.9548 19.7479 30 16.6667 30ZM26.6667 16.6666C26.6667 22.1895 22.1896 26.6666 16.6667 26.6666C11.1439 26.6666 6.66671 22.1895 6.66671 16.6666C6.66671 11.1438 11.1439 6.66665 16.6667 6.66665C22.1896 6.66665 26.6667 11.1438 26.6667 16.6666Z" fill="#3E92D1"/>
</svg>
