<svg width="40" height="40" viewBox="0 0 40 40" fill="none" xmlns="http://www.w3.org/2000/svg">
<path fill-rule="evenodd" clip-rule="evenodd" d="M21.6667 18.3333C18.5603 18.3333 15.9501 16.2087 15.2101 13.3333H3.33337V10H15.2101C15.9501 7.12462 18.5603 5 21.6667 5C25.3486 5 28.3334 7.98477 28.3334 11.6667C28.3334 15.3486 25.3486 18.3333 21.6667 18.3333ZM31.6667 10H36.6667V13.3333H31.6667V10ZM13.3334 35C10.227 35 7.61681 32.8754 6.87674 30H3.33337V26.6667H6.87674C7.61681 23.7913 10.227 21.6667 13.3334 21.6667C17.0153 21.6667 20 24.6514 20 28.3333C20 32.0152 17.0153 35 13.3334 35ZM23.3334 30H36.6667V26.6667H23.3334V30ZM16.6667 28.3333C16.6667 30.1743 15.1743 31.6667 13.3334 31.6667C11.4924 31.6667 10 30.1743 10 28.3333C10 26.4924 11.4924 25 13.3334 25C15.1743 25 16.6667 26.4924 16.6667 28.3333ZM25 11.6667C25 13.5076 23.5077 15 21.6667 15C19.8258 15 18.3334 13.5076 18.3334 11.6667C18.3334 9.82572 19.8258 8.33333 21.6667 8.33333C23.5077 8.33333 25 9.82572 25 11.6667Z" fill="#3E92D1"/>
</svg>
