<svg width="68" height="68" viewBox="0 0 68 68" fill="none" xmlns="http://www.w3.org/2000/svg">
<g filter="url(#filter0_b_1190_4989)">
<rect width="68" height="68" rx="34" fill="white" fill-opacity="0.49"/>
</g>
<path d="M56.0383 11.9618C50.1517 6.07541 42.3248 2.83334 34 2.83334C25.6753 2.83334 17.8484 6.07529 11.9618 11.9618C6.07544 17.8484 2.83337 25.6752 2.83337 34C2.83337 42.3248 6.07532 50.1517 11.9618 56.0383C17.8484 61.9246 25.6753 65.1667 34 65.1667C42.3248 65.1667 50.1517 61.9247 56.0383 56.0383C61.9246 50.1517 65.1667 42.3248 65.1667 34C65.1667 25.6752 61.9248 17.8484 56.0383 11.9618ZM16.3598 55.098C17.3891 46.2429 25.0024 39.4063 34 39.4063C38.7432 39.4063 43.2037 41.2543 46.5588 44.609C49.3931 47.4438 51.1808 51.1451 51.6406 55.0975C46.8613 59.1004 40.7075 61.5143 34 61.5143C27.2926 61.5143 21.1393 59.1009 16.3598 55.098ZM34 35.6444C28.7807 35.6444 24.5339 31.3977 24.5339 26.1784C24.5339 20.9586 28.7808 16.7123 34 16.7123C39.2192 16.7123 43.4662 20.9586 43.4662 26.1784C43.4662 31.3977 39.2194 35.6445 34 35.6445V35.6444ZM54.7842 52.0102C53.8458 48.2312 51.8948 44.7796 49.1411 42.0266C46.8965 39.7819 44.2409 38.0979 41.3447 37.0427C44.8263 34.6815 47.1185 30.6925 47.1185 26.1784C47.1185 18.9451 41.2334 13.0599 34 13.0599C26.7667 13.0599 20.8816 18.9451 20.8816 26.1784C20.8816 30.6949 23.1757 34.6853 26.6602 37.0461C23.9955 38.0171 21.5298 39.5185 19.4083 41.4949C16.3361 44.3559 14.2028 48.004 13.2136 52.0073C9.02434 47.1779 6.48572 40.8801 6.48572 34C6.48572 18.8285 18.8286 6.48569 34 6.48569C49.1715 6.48569 61.5144 18.8285 61.5144 34C61.5144 40.8814 58.9748 47.1808 54.7842 52.0102Z" fill="#3E92D1"/>
<defs>
<filter id="filter0_b_1190_4989" x="-90" y="-90" width="248" height="248" filterUnits="userSpaceOnUse" color-interpolation-filters="sRGB">
<feFlood flood-opacity="0" result="BackgroundImageFix"/>
<feGaussianBlur in="BackgroundImageFix" stdDeviation="45"/>
<feComposite in2="SourceAlpha" operator="in" result="effect1_backgroundBlur_1190_4989"/>
<feBlend mode="normal" in="SourceGraphic" in2="effect1_backgroundBlur_1190_4989" result="shape"/>
</filter>
</defs>
</svg>
