<svg width="64" height="64" viewBox="0 0 64 64" fill="none" xmlns="http://www.w3.org/2000/svg">
<path d="M54.0384 9.9618C48.1518 4.07544 40.325 0.833374 32.0002 0.833374C23.6754 0.833374 15.8485 4.07532 9.96192 9.9618C4.07556 15.8484 0.833496 23.6753 0.833496 32C0.833496 40.3248 4.07544 48.1517 9.96192 54.0383C15.8485 59.9246 23.6754 63.1667 32.0002 63.1667C40.325 63.1667 48.1518 59.9248 54.0384 54.0383C59.9248 48.1517 63.1668 40.3248 63.1668 32C63.1668 23.6753 59.9249 15.8484 54.0384 9.9618ZM14.36 53.0981C15.3892 44.2429 23.0025 37.4064 32.0002 37.4064C36.7433 37.4064 41.2038 39.2543 44.5589 42.609C47.3932 45.4438 49.1809 49.1451 49.6407 53.0976C44.8614 57.1004 38.7076 59.5144 32.0002 59.5144C25.2928 59.5144 19.1394 57.1009 14.36 53.0981ZM32.0002 33.6444C26.7808 33.6444 22.534 29.3977 22.534 24.1784C22.534 18.9586 26.781 14.7123 32.0002 14.7123C37.2194 14.7123 41.4663 18.9586 41.4663 24.1784C41.4663 29.3977 37.2195 33.6446 32.0002 33.6446V33.6444ZM52.7843 50.0102C51.8459 46.2312 49.8949 42.7796 47.1412 40.0267C44.8966 37.7819 42.241 36.098 39.3448 35.0427C42.8264 32.6816 45.1187 28.6925 45.1187 24.1784C45.1187 16.9451 39.2335 11.0599 32.0002 11.0599C24.7668 11.0599 18.8817 16.9451 18.8817 24.1784C18.8817 28.6949 21.1758 32.6853 24.6603 35.0461C21.9957 36.0171 19.53 37.5185 17.4084 39.4949C14.3362 42.3559 12.2029 46.004 11.2137 50.0073C7.02446 45.1779 4.48584 38.8801 4.48584 32C4.48584 16.8286 16.8287 4.48572 32.0002 4.48572C47.1716 4.48572 59.5145 16.8286 59.5145 32C59.5145 38.8814 56.9749 45.1809 52.7843 50.0102Z" fill="#3E92D1"/>
</svg>
