<svg width="20" height="20" viewBox="0 0 20 20" fill="none" xmlns="http://www.w3.org/2000/svg">
<path d="M15.423 5.64342C15.3662 5.63441 15.3084 5.63441 15.2517 5.64342C14.65 5.6217 14.0804 5.36734 13.6631 4.93409C13.2459 4.50085 13.0137 3.92265 13.0158 3.32171C13.0158 2.03487 14.0526 1 15.3418 1C15.9588 1 16.5504 1.24461 16.9866 1.68001C17.4229 2.11542 17.6679 2.70595 17.6679 3.32171C17.6663 3.92308 17.4317 4.50052 17.0133 4.93324C16.5949 5.36595 16.0251 5.62043 15.423 5.64342ZM14.4944 12.1946C15.7295 12.4016 17.0909 12.1856 18.0466 11.5467C19.3178 10.7008 19.3178 9.31496 18.0466 8.46907C17.0819 7.83015 15.7025 7.61417 14.4673 7.83015M4.57701 5.64342C4.6311 5.63442 4.69421 5.63442 4.74831 5.64342C5.34999 5.6217 5.91965 5.36734 6.33688 4.93409C6.75412 4.50085 6.98625 3.92265 6.98422 3.32171C6.98422 2.03487 5.94741 1 4.65815 1C4.04124 1 3.44959 1.24461 3.01337 1.68001C2.57715 2.11542 2.33208 2.70595 2.33208 3.32171C2.3411 4.58155 3.33283 5.59842 4.57701 5.64342ZM5.50564 12.1946C4.27047 12.4016 2.90909 12.1856 1.95342 11.5467C0.682194 10.7008 0.682194 9.31496 1.95342 8.46907C2.91811 7.83015 4.29752 7.61417 5.53268 7.83015M10.0135 12.3656C9.95678 12.3566 9.89897 12.3566 9.84223 12.3656C9.24054 12.3439 8.67089 12.0895 8.25365 11.6563C7.83641 11.223 7.60428 10.6448 7.60631 10.0439C7.60631 8.75703 8.64313 7.72216 9.93238 7.72216C10.5493 7.72216 11.1409 7.96677 11.5772 8.40217C12.0134 8.83758 12.2585 9.42811 12.2585 10.0439C12.2494 11.3037 11.2577 12.3296 10.0135 12.3656ZM7.38993 15.2002C6.11871 16.0461 6.11871 17.4319 7.38993 18.2778C8.83246 19.2407 11.1946 19.2407 12.6371 18.2778C13.9083 17.4319 13.9083 16.0461 12.6371 15.2002C11.2036 14.2463 8.83246 14.2463 7.38993 15.2002Z" fill="#979797"/>
<path d="M14.4944 12.1946C15.7295 12.4016 17.0909 12.1856 18.0466 11.5467C19.3178 10.7008 19.3178 9.31496 18.0466 8.46907C17.0819 7.83015 15.7025 7.61417 14.4673 7.83015M5.50564 12.1946C4.27047 12.4016 2.90909 12.1856 1.95342 11.5467C0.682194 10.7008 0.682194 9.31496 1.95342 8.46907C2.91811 7.83015 4.29752 7.61417 5.53268 7.83015M15.423 5.64342C15.3662 5.63441 15.3084 5.63441 15.2517 5.64342C14.65 5.6217 14.0804 5.36734 13.6631 4.93409C13.2459 4.50085 13.0137 3.92265 13.0158 3.32171C13.0158 2.03487 14.0526 1 15.3418 1C15.9588 1 16.5504 1.24461 16.9866 1.68001C17.4229 2.11542 17.6679 2.70595 17.6679 3.32171C17.6663 3.92308 17.4317 4.50052 17.0133 4.93324C16.5949 5.36596 16.0251 5.62043 15.423 5.64342ZM4.57701 5.64342C4.6311 5.63442 4.69421 5.63442 4.74831 5.64342C5.34999 5.6217 5.91965 5.36734 6.33688 4.93409C6.75412 4.50085 6.98625 3.92265 6.98422 3.32171C6.98422 2.03487 5.94741 1 4.65815 1C4.04124 1 3.44959 1.24461 3.01337 1.68001C2.57715 2.11542 2.33208 2.70595 2.33208 3.32171C2.3411 4.58155 3.33283 5.59842 4.57701 5.64342ZM10.0135 12.3656C9.95678 12.3566 9.89897 12.3566 9.84222 12.3656C9.24054 12.3439 8.67089 12.0895 8.25365 11.6563C7.83641 11.223 7.60428 10.6448 7.60631 10.0439C7.60631 8.75703 8.64313 7.72216 9.93238 7.72216C10.5493 7.72216 11.1409 7.96677 11.5772 8.40217C12.0134 8.83758 12.2585 9.42811 12.2585 10.0439C12.2494 11.3037 11.2577 12.3296 10.0135 12.3656ZM7.38993 15.2002C6.11871 16.0461 6.11871 17.4319 7.38993 18.2778C8.83246 19.2407 11.1946 19.2407 12.6371 18.2778C13.9083 17.4319 13.9083 16.0461 12.6371 15.2002C11.2036 14.2463 8.83246 14.2463 7.38993 15.2002Z" stroke="#B1B1B1" stroke-linecap="round" stroke-linejoin="round"/>
</svg>
