<svg width="27" height="26" viewBox="0 0 27 26" fill="none" xmlns="http://www.w3.org/2000/svg">
<path d="M13.6268 24.6013C20.312 24.6013 25.7311 19.3181 25.7311 12.8006C25.7311 6.28315 20.312 1 13.6268 1C6.94157 1 1.52246 6.28315 1.52246 12.8006C1.52246 19.3181 6.94157 24.6013 13.6268 24.6013Z" stroke="white" stroke-width="1.5" stroke-linecap="round" stroke-linejoin="round"/>
<path d="M9.59766 15.5502C9.59766 17.0724 10.796 18.2997 12.2848 18.2997H15.323C16.6182 18.2997 17.6712 17.2258 17.6712 15.9042C17.6712 14.4645 17.0297 13.9571 16.0735 13.6266L11.1954 11.9746C10.2392 11.6441 9.59766 11.1367 9.59766 9.69703C9.59766 8.37536 10.6507 7.3015 11.9459 7.3015H14.9841C16.4729 7.3015 17.6712 8.52877 17.6712 10.0511M13.626 5.72021V19.881" stroke="white" stroke-width="1.5" stroke-linecap="round" stroke-linejoin="round"/>
</svg>
