<svg width="110" height="49" viewBox="0 0 110 49" fill="none" xmlns="http://www.w3.org/2000/svg">
<mask id="mask0_771_8867" style="mask-type:luminance" maskUnits="userSpaceOnUse" x="0" y="0" width="37" height="45">
<path d="M0 0H36.0493V44.1176H0V0Z" fill="white"/>
</mask>
<g mask="url(#mask0_771_8867)">
<path d="M12.1156 15.8375C11.6049 15.8072 11.0792 15.896 10.5985 16.1236C9.2592 16.7566 8.76352 18.2112 9.49702 19.3709L10.4108 20.8233L9.31427 24.0272L10.2255 24.2613L11.0542 21.8421L18.4242 33.537C18.9224 34.3282 19.8687 34.7856 20.8526 34.7856C21.2181 34.7856 21.5886 34.7206 21.9466 34.5884C23.749 33.9164 29.032 34.5884 31.0482 32.1229V38.757L31.8547 40.852L32.4596 41.7249L33.0644 42.2487C33.4676 42.5978 34.2741 43.2962 35.4838 43.6453C35.5064 42.1496 34.8017 40.4499 32.3984 38.0221C29.2491 34.8398 30.4707 32.1388 31.6523 29.5267C31.9853 28.7897 34.4295 27.6506 34.6774 26.8854L31.6724 27.2809C31.5397 27.2809 31.4095 27.2918 31.2818 27.307C28.5781 27.3893 24.6227 28.5426 22.1018 29.375L14.3487 17.0774C14.0457 16.594 13.5776 16.2407 13.0369 16.0369L18.4192 0.301376L17.508 0.0672607L17.3052 0.659051C15.9884 0.810793 5.88708 2.06374 -0.000976562 5.55595C9.19661 5.26765 11.0842 8.85524 14.4238 9.08502L12.1156 15.8375Z" fill="#FF5A40"/>
</g>
<path d="M38.8888 26.5912C39.5171 26.5912 40.1455 26.5326 40.7638 26.4243C40.914 26.5847 41.1644 26.6584 41.4022 26.5912L43.1596 26.1078L43.4875 26.0167C43.5727 25.995 43.6453 25.9539 43.7079 25.9062C43.8706 25.7739 43.9432 25.5702 43.8731 25.3751C43.8105 25.206 43.6553 25.0846 43.47 25.0391C43.3624 25.0131 43.2447 25.0109 43.1296 25.0434L41.0442 25.6179C40.8539 25.6699 40.7163 25.7999 40.6587 25.9539C40.0754 26.0579 39.4821 26.1121 38.8888 26.1121C36.0674 26.1121 33.4663 24.922 31.8216 23.0513C31.0681 22.195 30.5148 21.1957 30.2294 20.1032C30.2294 20.0966 30.2269 20.0923 30.2269 20.0858C30.292 20.0858 30.3571 20.0858 30.4222 20.0858C30.2469 17.8986 33.9946 16.1709 37.96 15.4013C41.9254 14.6296 46.1662 14.8074 47.0875 16.8494C50.1216 15.6008 51.9266 14.2199 51.6412 13.1187C51.3032 11.8224 48.1614 11.2458 43.8055 11.4799C42.0906 8.76809 38.9939 7.19215 35.9848 7.77744C32.9757 8.36056 30.9529 10.9315 30.7401 14.0183C26.6871 15.4187 24.1286 17.1008 24.464 18.3971C24.7294 19.4138 26.7171 19.9861 29.6586 20.075C29.6686 20.1205 29.6786 20.1638 29.6912 20.2072C30.1618 22.0281 31.3409 23.6019 32.9381 24.7313C33.1659 24.8938 33.4012 25.0477 33.6491 25.193C35.1662 26.0774 36.9786 26.5912 38.8888 26.5912Z" fill="#FF5A40"/>
<path d="M31.2523 20.2679C32.1935 23.8967 36.3517 26.1772 40.5425 25.3643C44.7332 24.5492 47.3693 20.9486 46.428 17.3198C45.4892 13.6911 30.3135 16.6392 31.2523 20.2679ZM36.5395 21.4255C36.5395 21.4255 41.3886 21.8829 44.22 20.0403C44.22 20.0403 41.6515 25.774 36.5395 21.4255Z" fill="#FF5A40"/>
<path d="M40.1429 45.2183C38.2949 45.2183 36.6802 44.7983 35.2989 43.9583C33.9176 43.1183 32.8442 41.9517 32.0789 40.4583C31.3136 38.9463 30.9309 37.1917 30.9309 35.1943C30.9309 33.1783 31.3229 31.405 32.1069 29.8743C32.9096 28.325 34.0389 27.121 35.4949 26.2623C36.9696 25.385 38.7149 24.9463 40.7309 24.9463C43.0269 24.9463 44.9309 25.497 46.4429 26.5983C47.9549 27.6997 48.9349 29.221 49.3829 31.1623H45.3789C45.0802 30.2477 44.5389 29.5383 43.7549 29.0343C42.9709 28.5117 41.9629 28.2503 40.7309 28.2503C38.7709 28.2503 37.2589 28.8757 36.1949 30.1263C35.1309 31.3583 34.5989 33.057 34.5989 35.2223C34.5989 37.3877 35.1216 39.0677 36.1669 40.2623C37.2309 41.4383 38.6682 42.0263 40.4789 42.0263C42.2522 42.0263 43.5869 41.5503 44.4829 40.5983C45.3976 39.6277 45.9482 38.3583 46.1349 36.7903H41.1789V34.1023H49.7469V44.8823H46.4429L46.1629 42.3063C45.5282 43.2397 44.7349 43.9583 43.7829 44.4623C42.8309 44.9663 41.6176 45.2183 40.1429 45.2183ZM60.7911 45.2183C59.3538 45.2183 58.0565 44.9383 56.8991 44.3783C55.7418 43.7997 54.8178 42.9317 54.1271 41.7743C53.4551 40.617 53.1191 39.1517 53.1191 37.3783V25.2823H56.7031V37.4063C56.7031 38.937 57.0671 40.0757 57.7951 40.8223C58.5418 41.569 59.5685 41.9423 60.8751 41.9423C62.1631 41.9423 63.1805 41.569 63.9271 40.8223C64.6738 40.0757 65.0471 38.937 65.0471 37.4063V25.2823H68.6311V37.3783C68.6311 39.1517 68.2765 40.617 67.5671 41.7743C66.8578 42.9317 65.9058 43.7997 64.7111 44.3783C63.5351 44.9383 62.2285 45.2183 60.7911 45.2183ZM72.2897 44.8823V25.2823H75.8737V44.8823H72.2897ZM79.6726 44.8823V25.2823H86.3646C88.6606 25.2823 90.5459 25.693 92.0206 26.5143C93.5139 27.317 94.6152 28.4557 95.3246 29.9303C96.0526 31.3863 96.4166 33.1037 96.4166 35.0823C96.4166 37.061 96.0526 38.7877 95.3246 40.2623C94.6152 41.7183 93.5139 42.857 92.0206 43.6783C90.5459 44.481 88.6606 44.8823 86.3646 44.8823H79.6726ZM83.2566 41.8023H86.1966C87.8392 41.8023 89.1366 41.541 90.0886 41.0183C91.0406 40.477 91.7219 39.7117 92.1326 38.7223C92.5432 37.7143 92.7486 36.501 92.7486 35.0823C92.7486 33.6823 92.5432 32.4783 92.1326 31.4703C91.7219 30.4623 91.0406 29.6877 90.0886 29.1463C89.1366 28.605 87.8392 28.3343 86.1966 28.3343H83.2566V41.8023Z" fill="#FF5A40"/>
</svg>
