<svg width="23" height="22" viewBox="0 0 23 22" fill="none" xmlns="http://www.w3.org/2000/svg">
<ellipse cx="11.1828" cy="11" rx="11.1828" ry="11" fill="#3E92D1"/>
<path fill-rule="evenodd" clip-rule="evenodd" d="M11.1828 22C5.00672 22 0 17.0751 0 11C0 4.92487 5.00672 0 11.1828 0C17.3589 0 22.3657 4.92487 22.3657 11C22.3657 17.0751 17.3589 22 11.1828 22ZM11.1828 20C16.236 20 20.3324 15.9706 20.3324 11C20.3324 6.02944 16.236 2 11.1828 2C6.12965 2 2.03324 6.02944 2.03324 11C2.03324 15.9706 6.12965 20 11.1828 20ZM14.5304 7.29289L9.14958 12.5858L6.81858 10.2929L5.38086 11.7071L9.14958 15.4142L15.9682 8.70711L14.5304 7.29289Z" fill="white"/>
</svg>
