<svg width="26" height="26" viewBox="0 0 26 26" fill="none" xmlns="http://www.w3.org/2000/svg">
<path d="M12.8006 24.6013C19.3181 24.6013 24.6013 19.3181 24.6013 12.8006C24.6013 6.28315 19.3181 1 12.8006 1C6.28315 1 1 6.28315 1 12.8006C1 19.3181 6.28315 24.6013 12.8006 24.6013Z" stroke="#3E92D1" stroke-width="1.5" stroke-linecap="round" stroke-linejoin="round"/>
<path d="M8.87305 15.5502C8.87305 17.0724 10.0413 18.2997 11.4928 18.2997H14.4548C15.7174 18.2997 16.7441 17.2258 16.7441 15.9042C16.7441 14.4645 16.1186 13.9571 15.1864 13.6266L10.4307 11.9746C9.49848 11.6441 8.87305 11.1367 8.87305 9.69703C8.87305 8.37536 9.8997 7.3015 11.1624 7.3015H14.1243C15.5758 7.3015 16.7441 8.52877 16.7441 10.0511M12.8003 5.72021V19.881" stroke="#3E92D1" stroke-width="1.5" stroke-linecap="round" stroke-linejoin="round"/>
</svg>
