<svg width="27" height="26" viewBox="0 0 27 26" fill="none" xmlns="http://www.w3.org/2000/svg">
<path d="M19.6396 15.68C21.2979 15.9514 23.1257 15.6682 24.4087 14.8304C26.1154 13.7211 26.1154 11.9038 24.4087 10.7945C23.1136 9.95669 21.2616 9.67347 19.6033 9.95669M7.5716 15.68C5.91331 15.9514 4.08555 15.6682 2.80249 14.8304C1.09578 13.7211 1.09578 11.9038 2.80249 10.7945C4.09766 9.95669 5.94962 9.67347 7.60792 9.95669M20.8864 7.08913C20.8102 7.07732 20.7326 7.07732 20.6564 7.08913C19.8486 7.06065 19.0838 6.7271 18.5236 6.15896C17.9634 5.59082 17.6518 4.83261 17.6545 4.04457C17.6545 2.35707 19.0465 1 20.7774 1C21.6057 1 22.4 1.32077 22.9857 1.89173C23.5713 2.4627 23.9004 3.2371 23.9004 4.04457C23.8981 4.83317 23.5832 5.5904 23.0215 6.15784C22.4597 6.72528 21.6947 7.05898 20.8864 7.08913ZM6.32486 7.08913C6.39748 7.07733 6.48221 7.07733 6.55484 7.08913C7.36264 7.06065 8.12744 6.7271 8.68762 6.15896C9.24779 5.59082 9.55944 4.83261 9.55671 4.04457C9.55671 2.35707 8.16472 1 6.4338 1C5.60555 1 4.81122 1.32077 4.22556 1.89173C3.6399 2.4627 3.31088 3.2371 3.31088 4.04457C3.32298 5.69666 4.65446 7.03013 6.32486 7.08913ZM13.6238 15.9042C13.5476 15.8924 13.47 15.8924 13.3938 15.9042C12.586 15.8757 11.8212 15.5422 11.261 14.974C10.7008 14.4059 10.3892 13.6477 10.3919 12.8596C10.3919 11.1722 11.7839 9.81508 13.5148 9.81508C14.3431 9.81508 15.1374 10.1358 15.7231 10.7068C16.3087 11.2778 16.6378 12.0522 16.6378 12.8596C16.6256 14.5117 15.2942 15.857 13.6238 15.9042ZM10.1014 19.6214C8.3947 20.7307 8.3947 22.548 10.1014 23.6572C12.0381 24.9199 15.2094 24.9199 17.1461 23.6572C18.8528 22.548 18.8528 20.7307 17.1461 19.6214C15.2215 18.3705 12.0381 18.3705 10.1014 19.6214Z" stroke="white" stroke-width="1.5" stroke-linecap="round" stroke-linejoin="round"/>
</svg>
