<svg width="56" height="56" viewBox="0 0 56 56" fill="none" xmlns="http://www.w3.org/2000/svg">
<mask id="mask0_1009_11077" style="mask-type:luminance" maskUnits="userSpaceOnUse" x="0" y="0" width="40" height="56">
<path d="M0 0H39.0695V56H0V0Z" fill="white"/>
</mask>
<g mask="url(#mask0_1009_11077)">
<path d="M12.1317 19.0177C11.5782 18.9792 11.0084 19.092 10.4875 19.3809C9.03598 20.1844 8.49877 22.0307 9.29373 23.5028L10.284 25.3463L9.09566 29.4131L10.0833 29.7103L10.9813 26.6395L18.9689 41.4843C19.5088 42.4886 20.5343 43.0692 21.6006 43.0692C21.9967 43.0692 22.3983 42.9866 22.7863 42.8188C24.7397 41.9658 30.4654 42.8188 32.6505 39.6893H31.5L33.3052 36.3939L34.4325 44.5L31.5 40.5C31.937 40.9432 31.3394 40.0568 32.6505 40.5C32.6749 38.6014 36.7183 50.259 34.1137 47.1773C30.7006 43.138 32.0246 39.7095 33.3052 36.3939C33.666 35.4583 36.315 34.0125 36.5836 33.0412L33.3269 33.5432C33.1831 33.5432 33.042 33.557 32.9036 33.5763C29.9734 33.6808 25.6866 35.1447 22.9545 36.2013L14.5518 20.5916C14.2235 19.978 13.7162 19.5295 13.1301 19.2708L18.9634 -0.70283L17.9758 -1L17.7561 -0.248821C16.3289 -0.0562103 5.38135 1.5342 -1 5.96698C8.96815 5.60102 11.0139 10.1549 14.6332 10.4465L12.1317 19.0177Z" fill="#FF5A40"/>
</g>
<path d="M42.1476 33.7531C42.8286 33.7531 43.5096 33.6788 44.1797 33.5412C44.3425 33.7448 44.6138 33.8384 44.8716 33.7531L46.7762 33.1395L47.1316 33.0239C47.2239 32.9964 47.3026 32.9441 47.3704 32.8836C47.5467 32.7157 47.6254 32.4571 47.5495 32.2095C47.4816 31.9948 47.3134 31.8407 47.1126 31.783C46.996 31.7499 46.8684 31.7472 46.7436 31.7885L44.4836 32.5176C44.2774 32.5837 44.1282 32.7488 44.0658 32.9441C43.4336 33.0762 42.7906 33.145 42.1476 33.145C39.0898 33.145 36.2709 31.6344 34.4883 29.2598C33.6716 28.1729 33.072 26.9044 32.7627 25.5176C32.7627 25.5094 32.76 25.5039 32.76 25.4956C32.8306 25.4956 32.9011 25.4956 32.9716 25.4956C32.7817 22.7193 36.8433 20.5263 41.141 19.5495C45.4386 18.5699 50.0347 18.7955 51.0331 21.3875C54.3215 19.8026 56.2777 18.0499 55.9684 16.6521C55.6021 15.0066 52.1971 14.2747 47.4762 14.5719C45.6177 11.1297 42.2615 9.12926 39.0003 9.87219C35.7391 10.6124 33.5468 13.8757 33.3162 17.794C28.9236 19.5715 26.1508 21.7067 26.5143 23.3521C26.8019 24.6426 28.9562 25.369 32.1441 25.4819C32.155 25.5396 32.1658 25.5947 32.1794 25.6497C32.6895 27.961 33.9674 29.9587 35.6984 31.3922C35.9453 31.5986 36.2003 31.794 36.4689 31.9783C38.1131 33.101 40.0774 33.7531 42.1476 33.7531Z" fill="#FF5A40"/>
<path d="M33.8725 25.7268C34.8926 30.3329 39.3992 33.2275 43.941 32.1957C48.4828 31.1611 51.3398 26.5907 50.3196 21.9846C49.3022 17.3785 32.855 21.1206 33.8725 25.7268ZM39.6026 27.1961C39.6026 27.1961 44.858 27.7767 47.9266 25.4378C47.9266 25.4378 45.1429 32.7157 39.6026 27.1961Z" fill="#FF5A40"/>
</svg>
