<svg width="80" height="74" viewBox="0 0 80 74" fill="none" xmlns="http://www.w3.org/2000/svg">
<path d="M40.2404 73.2064C28.5658 73.2064 16.8913 73.2064 5.21677 73.2064C4.64648 73.2064 4.06882 73.2064 3.49607 73.1455C0.573341 72.8641 -0.601651 70.8334 0.644627 68.0877C1.72621 65.7172 2.90612 63.4076 4.05161 61.0625C9.45953 50.0206 14.8674 38.9804 20.2754 27.9418C20.4425 27.6047 20.617 27.2675 20.8112 26.9455C22.173 24.6942 24.3854 24.3773 26.1282 26.3193C27.3573 27.6782 28.3971 29.2044 29.4934 30.6774C35.0652 38.1868 40.637 45.6997 46.2088 53.2159C48.6423 56.4863 51.7076 56.6638 54.5664 53.7229C55.9848 52.2626 57.3712 50.7643 58.8067 49.3166C61.3952 46.7053 64.3326 46.8625 66.4466 49.9073C70.6894 56.0173 74.8264 62.2084 78.9832 68.3792C79.308 68.8634 79.5569 69.3973 79.7206 69.9613C80.1237 71.3785 79.5535 72.5193 78.1597 72.8971C77.2857 73.1129 76.3886 73.2126 75.4901 73.1937C63.7468 73.214 51.9969 73.2182 40.2404 73.2064Z" fill="#3E92D1"/>
<path d="M66.422 12.7024C66.419 15.0592 65.7376 17.3621 64.4641 19.319C63.1906 21.2759 61.3824 22.7987 59.2688 23.6944C57.1551 24.5902 54.8312 24.8184 52.5916 24.3503C50.352 23.8821 48.2976 22.7387 46.6889 21.0649C45.0802 19.3911 43.9895 17.2623 43.5553 14.9484C43.121 12.6346 43.3627 10.2398 44.2496 8.06777C45.1366 5.89573 46.6289 4.04423 48.5373 2.74799C50.4458 1.45174 52.6845 0.769137 54.9695 0.786708C58.0123 0.826588 60.9181 2.09806 63.0604 4.32703C65.2027 6.55599 66.41 9.56394 66.422 12.7024Z" fill="#3E92D1"/>
</svg>
