<svg width="162" height="143">
<path d="M81.4858 142.319C57.921 142.319 34.3561 142.319 10.7913 142.319C9.6402 142.319 8.47419 142.319 7.31812 142.199C1.41864 141.649 -0.953058 137.674 1.56253 132.301C3.74568 127.662 6.1273 123.142 8.43946 118.552C19.3552 96.942 30.271 75.3354 41.1868 53.7321C41.5242 53.0722 41.8764 52.4123 42.2684 51.7822C45.0172 47.3762 49.4827 46.756 53.0006 50.5566C55.4814 53.2161 57.5803 56.2031 59.7932 59.0858C71.0397 73.7824 82.2863 88.4856 93.5328 103.195C98.4449 109.596 104.632 109.943 110.403 104.188C113.266 101.33 116.064 98.3975 118.962 95.5643C124.186 90.4538 130.116 90.7614 134.383 96.7204C142.946 108.678 151.297 120.795 159.687 132.871C160.343 133.819 160.845 134.864 161.176 135.968C161.99 138.741 160.838 140.974 158.025 141.713C156.261 142.136 154.45 142.331 152.637 142.294C128.933 142.333 105.216 142.342 81.4858 142.319Z" fill="#3E92D1"/>
<path d="M134.333 23.9074C134.327 28.5198 132.951 33.0267 130.381 36.8565C127.81 40.6863 124.161 43.6666 119.894 45.4196C115.628 47.1726 110.937 47.6193 106.416 46.7031C101.896 45.787 97.7491 43.5491 94.502 40.2734C91.2548 36.9976 89.0533 32.8314 88.1768 28.303C87.3003 23.7745 87.7881 19.0878 89.5784 14.837C91.3687 10.5861 94.3809 6.96255 98.233 4.4257C102.085 1.88884 106.604 0.552929 111.216 0.587317C117.358 0.665367 123.223 3.15374 127.548 7.51601C131.872 11.8783 134.309 17.7651 134.333 23.9074Z" fill="#3E92D1"/>
</svg>
