<svg width="26" height="26" viewBox="0 0 26 26" fill="none" xmlns="http://www.w3.org/2000/svg">
<path d="M18.6626 15.68C20.2793 15.9514 22.0612 15.6682 23.3121 14.8304C24.976 13.7211 24.976 11.9038 23.3121 10.7945C22.0494 9.95669 20.2439 9.67347 18.6272 9.95669M6.89737 15.68C5.28068 15.9514 3.49879 15.6682 2.24792 14.8304C0.584027 13.7211 0.584027 11.9038 2.24792 10.7945C3.51059 9.95669 5.31609 9.67347 6.93277 9.95669M19.8781 7.08913C19.8038 7.07732 19.7281 7.07732 19.6539 7.08913C18.8663 7.06065 18.1207 6.7271 17.5746 6.15896C17.0285 5.59082 16.7246 4.83261 16.7273 4.04457C16.7273 2.35707 18.0844 1 19.7719 1C20.5793 1 21.3537 1.32077 21.9247 1.89173C22.4957 2.4627 22.8164 3.2371 22.8164 4.04457C22.8143 4.83317 22.5073 5.5904 21.9596 6.15784C21.412 6.72528 20.6661 7.05898 19.8781 7.08913ZM5.6819 7.08913C5.75271 7.07733 5.83531 7.07733 5.90612 7.08913C6.69365 7.06065 7.43927 6.7271 7.98538 6.15896C8.5315 5.59082 8.83534 4.83261 8.83268 4.04457C8.83268 2.35707 7.4756 1 5.78811 1C4.98064 1 4.20624 1.32077 3.63528 1.89173C3.06431 2.4627 2.74355 3.2371 2.74355 4.04457C2.75535 5.69666 4.05342 7.03013 5.6819 7.08913ZM12.7977 15.9042C12.7234 15.8924 12.6478 15.8924 12.5735 15.9042C11.7859 15.8757 11.0403 15.5422 10.4942 14.974C9.9481 14.4059 9.64426 13.6477 9.64692 12.8596C9.64692 11.1722 11.004 9.81508 12.6915 9.81508C13.499 9.81508 14.2734 10.1358 14.8443 10.7068C15.4153 11.2778 15.7361 12.0522 15.7361 12.8596C15.7243 14.5117 14.4262 15.857 12.7977 15.9042ZM9.36371 19.6214C7.69982 20.7307 7.69982 22.548 9.36371 23.6572C11.2518 24.9199 14.3436 24.9199 16.2317 23.6572C17.8956 22.548 17.8956 20.7307 16.2317 19.6214C14.3554 18.3705 11.2518 18.3705 9.36371 19.6214Z" stroke="#3E92D1" stroke-width="1.5" stroke-linecap="round" stroke-linejoin="round"/>
</svg>
