<svg width="68" height="68" viewBox="0 0 68 68" fill="none" xmlns="http://www.w3.org/2000/svg">
<g filter="url(#filter0_b_387_8338)">
<rect width="68" height="68" rx="34" fill="white" fill-opacity="0.49"/>
</g>
<path d="M56.0384 11.9618C50.1518 6.07544 42.325 2.83337 34.0002 2.83337C25.6754 2.83337 17.8485 6.07532 11.9619 11.9618C6.07556 17.8484 2.8335 25.6753 2.8335 34C2.8335 42.3248 6.07544 50.1517 11.9619 56.0383C17.8485 61.9246 25.6754 65.1667 34.0002 65.1667C42.325 65.1667 50.1518 61.9248 56.0384 56.0383C61.9248 50.1517 65.1668 42.3248 65.1668 34C65.1668 25.6753 61.9249 17.8484 56.0384 11.9618ZM16.36 55.0981C17.3892 46.2429 25.0025 39.4064 34.0002 39.4064C38.7433 39.4064 43.2038 41.2543 46.5589 44.609C49.3932 47.4438 51.1809 51.1451 51.6407 55.0976C46.8614 59.1004 40.7076 61.5144 34.0002 61.5144C27.2928 61.5144 21.1394 59.1009 16.36 55.0981ZM34.0002 35.6445C28.7808 35.6445 24.534 31.3977 24.534 26.1784C24.534 20.9586 28.781 16.7123 34.0002 16.7123C39.2194 16.7123 43.4663 20.9586 43.4663 26.1784C43.4663 31.3977 39.2195 35.6446 34.0002 35.6446V35.6445ZM54.7843 52.0102C53.8459 48.2312 51.8949 44.7796 49.1412 42.0267C46.8966 39.7819 44.241 38.098 41.3448 37.0427C44.8264 34.6816 47.1187 30.6925 47.1187 26.1784C47.1187 18.9451 41.2335 13.0599 34.0002 13.0599C26.7668 13.0599 20.8817 18.9451 20.8817 26.1784C20.8817 30.6949 23.1758 34.6853 26.6603 37.0461C23.9957 38.0171 21.53 39.5185 19.4084 41.4949C16.3362 44.3559 14.2029 48.004 13.2137 52.0073C9.02446 47.1779 6.48584 40.8801 6.48584 34C6.48584 18.8286 18.8287 6.48572 34.0002 6.48572C49.1716 6.48572 61.5145 18.8286 61.5145 34C61.5145 40.8814 58.9749 47.1809 54.7843 52.0102Z" fill="#3E92D1"/>
<defs>
<filter id="filter0_b_387_8338" x="-90" y="-90" width="248" height="248" filterUnits="userSpaceOnUse" color-interpolation-filters="sRGB">
<feFlood flood-opacity="0" result="BackgroundImageFix"/>
<feGaussianBlur in="BackgroundImageFix" stdDeviation="45"/>
<feComposite in2="SourceAlpha" operator="in" result="effect1_backgroundBlur_387_8338"/>
<feBlend mode="normal" in="SourceGraphic" in2="effect1_backgroundBlur_387_8338" result="shape"/>
</filter>
</defs>
</svg>
