<svg width="44" height="44" viewBox="0 0 44 44" fill="none" xmlns="http://www.w3.org/2000/svg">
<path d="M27.959 17.1136H10.8404C8.36561 17.1136 6.35938 15.1074 6.35938 12.6326C6.35938 10.1577 8.36561 8.15149 10.8404 8.15149H27.959M17.0234 36.8303H34.1419C36.6168 36.8303 38.623 34.824 38.623 32.3492C38.623 29.8744 36.6168 27.8682 34.1419 27.8682H17.0234M6.35938 32.3492C6.35938 35.814 9.16811 38.6227 12.6329 38.6227C16.0976 38.6227 18.9063 35.814 18.9063 32.3492C18.9063 28.8845 16.0976 26.0757 12.6329 26.0757C9.16811 26.0757 6.35938 28.8845 6.35938 32.3492ZM38.623 12.6326C38.623 16.0973 35.8143 18.906 32.3495 18.906C28.8848 18.906 26.076 16.0973 26.076 12.6326C26.076 9.1678 28.8848 6.35907 32.3495 6.35907C35.8143 6.35907 38.623 9.1678 38.623 12.6326Z" stroke="#3E92D1" stroke-width="2" stroke-linecap="round" stroke-linejoin="round"/>
</svg>
