<svg width="115" height="30" viewBox="0 0 115 30" fill="none" xmlns="http://www.w3.org/2000/svg">
<path d="M15.2266 0.643921V29.0814H8.37112V0.643921H15.2266ZM23.7813 0.643921V5.93689H0.0117416V0.643921H23.7813ZM50.2071 14.2963V15.4486C50.2071 17.6231 49.9011 19.5762 49.2891 21.308C48.6901 23.0267 47.8373 24.4981 46.7305 25.722C45.6237 26.933 44.3151 27.864 42.8047 28.515C41.2943 29.153 39.6276 29.472 37.8047 29.472C35.9688 29.472 34.2891 29.153 32.7656 28.515C31.2552 27.864 29.9401 26.933 28.8203 25.722C27.7136 24.4981 26.8542 23.0267 26.2422 21.308C25.6433 19.5762 25.3438 17.6231 25.3438 15.4486V14.2963C25.3438 12.1218 25.6433 10.1687 26.2422 8.43689C26.8542 6.70512 27.7071 5.23376 28.8008 4.02283C29.9076 2.79887 31.2162 1.86788 32.7266 1.22986C34.25 0.578817 35.9297 0.253296 37.7656 0.253296C39.5886 0.253296 41.2552 0.578817 42.7656 1.22986C44.2891 1.86788 45.6042 2.79887 46.711 4.02283C47.8177 5.23376 48.6771 6.70512 49.2891 8.43689C49.9011 10.1687 50.2071 12.1218 50.2071 14.2963ZM43.2539 15.4486V14.2572C43.2539 12.851 43.1302 11.614 42.8828 10.5463C42.6485 9.46554 42.2969 8.56059 41.8281 7.83142C41.3594 7.10225 40.78 6.55538 40.0899 6.1908C39.4128 5.81319 38.638 5.62439 37.7656 5.62439C36.8542 5.62439 36.0599 5.81319 35.3828 6.1908C34.7058 6.55538 34.1393 7.10225 33.6836 7.83142C33.2279 8.56059 32.8828 9.46554 32.6485 10.5463C32.4271 11.614 32.3164 12.851 32.3164 14.2572V15.4486C32.3164 16.8418 32.4271 18.0788 32.6485 19.1595C32.8828 20.2273 33.2279 21.1322 33.6836 21.8744C34.1524 22.6166 34.7253 23.1765 35.4024 23.5541C36.0925 23.9317 36.8933 24.1205 37.8047 24.1205C38.6771 24.1205 39.4518 23.9317 40.1289 23.5541C40.806 23.1765 41.3724 22.6166 41.8281 21.8744C42.2969 21.1322 42.6485 20.2273 42.8828 19.1595C43.1302 18.0788 43.2539 16.8418 43.2539 15.4486ZM53.7617 0.643921H64.9531C67.1406 0.643921 69.0417 0.969442 70.6563 1.62048C72.2709 2.27153 73.5143 3.23507 74.3867 4.51111C75.2722 5.78715 75.7149 7.36267 75.7149 9.23767C75.7149 10.8653 75.461 12.226 74.9531 13.3197C74.4453 14.4135 73.7357 15.3184 72.8242 16.0345C71.9258 16.7377 70.8776 17.3171 69.6797 17.7728L67.4336 19.0424H58.0391L58 13.7494H64.9531C65.8255 13.7494 66.5482 13.5931 67.1211 13.2806C67.694 12.9681 68.1237 12.5254 68.4102 11.9525C68.7097 11.3666 68.8594 10.67 68.8594 9.86267C68.8594 9.04236 68.7097 8.33923 68.4102 7.7533C68.1107 7.16736 67.668 6.71814 67.0821 6.40564C66.5091 6.09314 65.7995 5.93689 64.9531 5.93689H60.6172V29.0814H53.7617V0.643921ZM69.3281 29.0814L63.0391 16.5033L70.3047 16.4642L76.6719 28.7885V29.0814H69.3281ZM103.117 13.8861V25.5658C102.635 26.0997 101.893 26.6726 100.891 27.2845C99.9011 27.8835 98.6511 28.3978 97.1406 28.8275C95.6302 29.2572 93.8529 29.472 91.8086 29.472C89.9206 29.472 88.2084 29.1726 86.6719 28.5736C85.1354 27.9616 83.8138 27.0697 82.7071 25.8978C81.6133 24.7129 80.7669 23.2676 80.168 21.5619C79.5821 19.8431 79.2891 17.877 79.2891 15.6635V14.0814C79.2891 11.8679 79.5886 9.90173 80.1875 8.18298C80.7865 6.46423 81.6263 5.01892 82.7071 3.84705C83.8008 2.66215 85.0834 1.76371 86.5547 1.15173C88.0391 0.539754 89.6667 0.233765 91.4375 0.233765C94.0547 0.233765 96.1836 0.650431 97.8242 1.48376C99.4649 2.30408 100.708 3.4434 101.555 4.90173C102.401 6.34705 102.915 8.02022 103.098 9.92126H96.5156C96.3854 8.98376 96.138 8.18949 95.7735 7.53845C95.4219 6.87439 94.9141 6.37309 94.25 6.03455C93.586 5.68298 92.7266 5.5072 91.6719 5.5072C90.8516 5.5072 90.1029 5.68298 89.4258 6.03455C88.7617 6.38611 88.1953 6.91996 87.7266 7.63611C87.2578 8.33923 86.8933 9.22465 86.6328 10.2924C86.3854 11.3601 86.2617 12.6101 86.2617 14.0424V15.6635C86.2617 17.0827 86.3789 18.3262 86.6133 19.3939C86.8607 20.4616 87.2253 21.3536 87.7071 22.0697C88.2018 22.7728 88.8268 23.3067 89.5821 23.6713C90.3503 24.0228 91.2552 24.1986 92.2969 24.1986C93.0261 24.1986 93.6511 24.14 94.1719 24.0228C94.6927 23.8926 95.1224 23.7364 95.461 23.5541C95.8125 23.3588 96.0794 23.1765 96.2617 23.0072V18.5931H91.4961V13.8861H103.117ZM114.406 0.643921V29.0814H107.57V0.643921H114.406Z" fill="#3E92D1"/>
</svg>
